# xmcd
#
# Track frame offsets: 
#        150
#        16701
#        32779
#        49312
#        71691
#        85270
#        98360
#        112967
#        128861
#        146936
#        162112
#        180943
#        194673
#        211347
#        226465
#        242710
#        258958
#        275087
#        289400
#        305225
#
# Disc length: 4298 seconds
#
# Revision: 0
# Processed by: cddbd v1.5.2PL0 Copyright (c) Steve Scherf et al.
# Submitted via: ExactAudioCopy v1.0b3
#
DISCID=2610c814
DTITLE=Różni Wyk.-(TPO)- - The Best Country... Ever !
DYEAR=2013
DGENRE=Country
TTITLE0=Good As Gone - Little Big Town
TTITLE1=There's A Girl In Texas - Trace Adkins
TTITLE2=I Don't Want This Night To End - Luke Bryan
TTITLE3=Tougher Than The Rest - Chris LeDoux
TTITLE4=This Heart - John Randall
TTITLE5=Outbound Plane - Suzy Bogguss
TTITLE6=Did I Shave My Legs For This - Deana Carter
TTITLE7=Let's Make A Baby King - New Grass Revival
TTITLE8=French Quarter Moon - Jo-El Sonnier
TTITLE9=What's In It For Me - John Berry
TTITLE10=Two Sparrows In The Hurricane - Tanya Tucker
TTITLE11=It Ain't Over ('Til Your Heart Says It's Over) - Jamie O'Hara
TTITLE12=This Far Gone - Jennifer Hanson
TTITLE13=Ain't Nothing 'Bout You - Brooks and Dunn
TTITLE14=Redneck Woman - Gretchen Wilson
TTITLE15=I'm Gone - Cyndi Thomson
TTITLE16=Up On The Ridge - Dierks Bentley
TTITLE17=Guys Like Me - Eric Church
TTITLE18=Chicks Dig It - Chris Cagle
TTITLE19=Southern Nights - Glen Campbell
EXTD=
EXTT0=
EXTT1=
EXTT2=
EXTT3=
EXTT4=
EXTT5=
EXTT6=
EXTT7=
EXTT8=
EXTT9=
EXTT10=
EXTT11=
EXTT12=
EXTT13=
EXTT14=
EXTT15=
EXTT16=
EXTT17=
EXTT18=
EXTT19=
PLAYORDER=
